<?xml version="1.0" encoding="utf-8"?>
<!-- Generator: Adobe Illustrator 26.1.0, SVG Export Plug-In . SVG Version: 6.00 Build 0)  -->
<svg version="1.1" id="Layer_1" xmlns="http://www.w3.org/2000/svg" xmlns:xlink="http://www.w3.org/1999/xlink" x="0px" y="0px"
	 viewBox="0 0 1080 1080" style="enable-background:new 0 0 1080 1080;" xml:space="preserve">
<g>
	<path d="M779.5,332.5c-91.64,27.98-174,81.18-239.09,151.09c-35.96,38.75-67.7,81.88-91.7,129.07
		c-4.81,9.45-9.17,19.12-12.94,29.03c-2.77,7.44-5.29,15.03-6.43,22.9c-0.26,2.55-0.51,5.39,0.15,7.9
		c-1.64-5.14-0.71-10.74,0.09-15.96c0.93-5.29,2.29-10.5,3.83-15.64c12.94-40.93,34.95-78.63,59.78-113.45
		C561.96,432.1,663.72,357.5,779.5,332.5L779.5,332.5z"/>
</g>
<g>
	<path d="M763.38,335.71c-17.85-23.09-34.36-47.92-59.44-63.57c-3.57-2.15-7.32-4.04-11.32-5.85
		C726.77,266.23,756.07,305.13,763.38,335.71L763.38,335.71z"/>
</g>
<g>
	<path d="M720.76,351.41c-22.32-26.62-47.92-63.53-81.02-76.29c4.87-0.14,9.8,0.73,14.54,2.16
		C684.64,286.87,711.13,322.01,720.76,351.41L720.76,351.41z"/>
</g>
<g>
	<path d="M684.02,364.67c-14.82-14.98-28.89-30.26-44.34-44.35c-11.47-10.32-23.33-20.17-37.09-27.19
		c-4.58-2.33-9.38-4.29-14.53-5.79C627.19,285.24,668.73,331.91,684.02,364.67L684.02,364.67z"/>
</g>
<g>
	<path d="M651.57,382.22c-19.1-17.18-37.25-34.95-57.34-50.77c-10.96-8.62-22.4-16.75-35.07-22.67c-5.07-2.36-10.36-4.3-16.01-5.63
		C584.06,299.81,632.67,349.09,651.57,382.22L651.57,382.22z"/>
</g>
<g>
	<path d="M614.57,406.22c-19.1-17.18-37.25-34.95-57.34-50.77c-10.96-8.62-22.4-16.75-35.07-22.67c-5.07-2.36-10.36-4.3-16.01-5.63
		C547.06,323.81,595.67,373.09,614.57,406.22L614.57,406.22z"/>
</g>
<g>
	<path d="M578.57,436.22c-19.1-17.18-37.25-34.95-57.34-50.77c-10.96-8.62-22.4-16.75-35.07-22.67c-5.07-2.36-10.36-4.3-16.01-5.63
		C511.06,353.81,559.67,403.09,578.57,436.22L578.57,436.22z"/>
</g>
<g>
	<path d="M560.39,459.65c-35.25-23.48-92.04-69.76-132.88-74.62C471.75,378.15,533.58,427.11,560.39,459.65L560.39,459.65z"/>
</g>
<g>
	<path d="M539.54,478.43c-38.58-17.48-102.1-53.97-143.18-52.17C438.9,412.32,507.83,450.64,539.54,478.43L539.54,478.43z"/>
</g>
<g>
	<path d="M520.98,503.38c-40.27-13.12-107.42-42.4-148.06-36.08C413.67,448.76,486.4,479.26,520.98,503.38L520.98,503.38z"/>
</g>
<g>
	<path d="M490.18,530.46c-41.19-9.89-110.44-33.76-150.45-24.24C378.88,484.51,453.79,509.15,490.18,530.46L490.18,530.46z"/>
</g>
<g>
	<path d="M474.02,556.77c-41.98-5.66-113.3-22.39-152.13-8.86C358.63,522.34,435.66,539.26,474.02,556.77L474.02,556.77z"/>
</g>
<g>
	<path d="M461.47,587.05c-39.17,1.52-101.41-2.11-134.93,17.38C354.29,573.74,424.56,576.09,461.47,587.05L461.47,587.05z"/>
</g>
<g>
	<path d="M439.47,624.05c-29.03,2.5-58.25,3.1-86.26,11.24c-4.5,1.33-9.14,2.98-13.42,4.93c-4.38,1.96-8.62,4.3-12.8,7.09
		c2.79-4.18,6.48-7.78,10.52-10.88C363.83,616.84,408.8,615.29,439.47,624.05L439.47,624.05z"/>
</g>
<g>
	<path d="M434.36,634.87c-21.33,19.85-43.97,38.33-61.01,62.01c-2.73,3.82-5.36,7.97-7.53,12.15c-2.24,4.24-4.14,8.7-5.71,13.47
		c-0.38-5.01,0.31-10.12,1.58-15.06C370.34,675.79,404.81,646.87,434.36,634.87L434.36,634.87z"/>
</g>
<g>
	<path d="M762.24,334.12c23.17,12.6,53.56,49.21,43.37,77.04c-0.44-3.91-1.21-7.55-2.31-11.05c-3.29-10.48-8.98-19.94-14.95-29.09
		C780.05,358.44,770.81,346.78,762.24,334.12L762.24,334.12z"/>
</g>
<g>
	<path d="M719.64,351.92c22.76,14.64,48.27,45.41,49.81,73.37c0.16,4.44-0.32,8.97-1.99,13.01
		C765.57,410.43,734.81,375.98,719.64,351.92L719.64,351.92z"/>
</g>
<g>
	<path d="M685.55,365.73c24.48,16.18,62.95,62.82,51.84,93.84c-0.15-4.69-1.07-9.09-2.42-13.32c-4.16-12.72-11.19-24.2-18.43-35.4
		C706.61,395.55,695.65,381.14,685.55,365.73L685.55,365.73z"/>
</g>
<g>
	<path d="M652.39,381.65c22.16,21.37,55.48,77.94,39.43,108.33c0.66-4.99,0.42-9.79-0.34-14.51c-2.43-14.21-8.04-27.58-13.85-40.7
		C669.65,416.87,660.51,399.68,652.39,381.65L652.39,381.65z"/>
</g>
<g>
	<path d="M610.68,402.43c24.53,18.6,64.3,70.84,51.95,102.91c0.07-5.03-0.74-9.77-2.06-14.36c-4.09-13.82-11.24-26.44-18.56-38.78
		C631.97,435.36,620.86,419.37,610.68,402.43L610.68,402.43z"/>
</g>
<g>
	<path d="M582.06,437.26c25.98,16.52,69.9,65.32,60.22,98.3c-0.35-5.02-1.54-9.68-3.23-14.15c-5.21-13.44-13.37-25.42-21.68-37.13
		C605.98,468.33,593.6,453.3,582.06,437.26L582.06,437.26z"/>
</g>
<g>
	<path d="M556.93,452.84c26.47,19.71,72.77,76.32,61.61,111.1c-0.07-5.52-1.23-10.69-2.86-15.69c-4.7-13.76-12.35-26.32-20.05-38.61
		C583.25,490.35,569.63,472.1,556.93,452.84L556.93,452.84z"/>
</g>
<g>
	<path d="M538,482.03c24.53,21.4,63.63,79.58,48.13,112.61c0.56-5.31,0.14-10.41-0.87-15.4c-3.19-15.01-9.92-28.93-16.89-42.53
		C558.8,518.19,547.95,500.53,538,482.03L538,482.03z"/>
</g>
<g>
	<path d="M517.06,502.14c24.94,20.9,63.33,77.08,47.75,110.21c0.55-5.22,0.13-10.25-0.82-15.15c-2.99-14.75-9.61-28.41-16.53-41.71
		C537.97,537.37,527.1,520.16,517.06,502.14L517.06,502.14z"/>
</g>
<g>
	<path d="M495.04,536.39c22.45,22.35,46.74,65.11,43.24,97.56c-0.63,5.27-2.07,10.55-4.84,14.98c0.91-5.12,0.93-10.12,0.41-15.04
		c-1.66-14.82-7.06-28.84-12.83-42.51C513.05,572.66,503.65,554.96,495.04,536.39L495.04,536.39z"/>
</g>
<g>
	<path d="M475.07,558.74c22.63,24.33,51.51,82.1,31.74,113.7C514.04,640.01,487.06,589.85,475.07,558.74L475.07,558.74z"/>
</g>
<g>
	<path d="M459.49,588.88c20.68,24.23,40.2,76.01,18.42,104.22c1.24-4.51,2.01-8.92,2.33-13.33c0.98-13.25-1.5-26.25-4.64-39.14
		C471.2,623.11,465.04,606.27,459.49,588.88L459.49,588.88z"/>
</g>
<g>
	<path d="M440.65,623.85c20.68,20.52,35.95,63.83,15.27,88.78c0.92-3.94,1.64-7.72,2.02-11.49
		C460.17,674.16,449.13,649.04,440.65,623.85L440.65,623.85z"/>
</g>
<g>
	<path d="M436.6,641.67c7.99,29.24-0.34,74.56-29.98,88.86c2.59-3.28,4.97-6.48,7.09-9.8C428.43,696.87,431.73,668.89,436.6,641.67
		L436.6,641.67z"/>
</g>
</svg>
