<?xml version="1.0" encoding="utf-8"?>
<!-- Generator: Adobe Illustrator 26.1.0, SVG Export Plug-In . SVG Version: 6.00 Build 0)  -->
<svg version="1.1" id="Layer_1" xmlns="http://www.w3.org/2000/svg" xmlns:xlink="http://www.w3.org/1999/xlink" x="0px" y="0px"
	 viewBox="0 0 300 300" style="enable-background:new 0 0 300 300;" xml:space="preserve">
<style type="text/css">
	.st0{fill:#FFDE17;stroke:#FFDE17;stroke-width:8;stroke-miterlimit:10;}
	.st1{fill:#FFDE17;}
</style>
<circle class="st0" cx="152" cy="149" r="52.5"/>
<g>
	<path class="st1" d="M152.4,54.5c0.9,3.66,1.63,7.72,2.26,11.44c0.3,2.28,0.75,5.42,1.3,7.62c0.71,4.15-0.82,8.15-3.56,11.44
		c0,0-0.8,0-0.8,0c-2.04-2.32-3.03-4.81-3.6-7.62c-0.58-2.57,0.46-5.11,0.8-7.63c0.24-1.91,0.85-5.73,1.2-7.62
		c0.49-2.54,0.97-5.08,1.6-7.63H152.4L152.4,54.5z"/>
</g>
<g>
	<path class="st1" d="M152.1,244.5c-0.9-3.48-1.63-7.34-2.26-10.87c-0.3-2.17-0.75-5.15-1.3-7.25c-0.72-3.98,0.85-7.79,3.56-10.88
		c0,0,0.8,0,0.8,0c2.71,3.08,4.28,6.9,3.56,10.87c-0.55,2.09-1,5.09-1.3,7.25c-0.64,3.54-1.36,7.39-2.26,10.87
		C152.9,244.5,152.1,244.5,152.1,244.5L152.1,244.5z"/>
</g>
<g>
	<path class="st1" d="M247.25,146.91c-3.66,0.89-7.72,1.6-11.44,2.23c-2.28,0.29-5.42,0.74-7.63,1.28
		c-4.15,0.7-8.15-0.85-11.43-3.59c0,0,0-0.8,0-0.8c2.33-2.04,4.82-3.02,7.63-3.58c2.58-0.57,5.1,0.48,7.62,0.82
		c1.91,0.25,5.73,0.86,7.62,1.22c2.54,0.5,5.08,0.98,7.62,1.62L247.25,146.91L247.25,146.91z"/>
</g>
<g>
	<path class="st1" d="M57.25,146.09c3.48-0.89,7.34-1.6,10.88-2.23c2.17-0.29,5.15-0.74,7.25-1.28c3.98-0.71,7.79,0.88,10.87,3.59
		c0,0,0,0.8,0,0.8c-3.09,2.7-6.91,4.26-10.88,3.53c-2.09-0.55-5.09-1.02-7.25-1.32c-3.54-0.65-7.39-1.38-10.87-2.29
		C57.25,146.89,57.25,146.09,57.25,146.09L57.25,146.09z"/>
</g>
<g>
	<path class="st1" d="M218.13,217.96c-3.22-1.96-6.6-4.33-9.67-6.52c-1.82-1.41-4.35-3.31-6.3-4.49c-3.43-2.44-5.17-6.36-5.54-10.62
		c0,0,0.57-0.56,0.57-0.56c3.09,0.21,5.55,1.27,7.93,2.87c2.23,1.42,3.27,3.95,4.81,5.97c0,0,2.31,3.08,2.31,3.08
		c2.17,3.09,4.52,6.47,6.46,9.7C218.7,217.4,218.13,217.96,218.13,217.96L218.13,217.96z"/>
</g>
<g>
	<path class="st1" d="M84.36,83.03c3.09,1.83,6.33,4.06,9.27,6.12c1.74,1.33,4.17,3.12,6.03,4.22c3.32,2.31,4.89,6.13,5.14,10.22
		c0,0-0.57,0.56-0.57,0.56c-2.99-0.13-5.36-1.09-7.67-2.6c-2.14-1.33-3.1-3.77-4.55-5.7c0,0-2.17-2.95-2.17-2.95
		c-2.04-2.96-4.25-6.2-6.07-9.3C83.8,83.6,84.36,83.03,84.36,83.03L84.36,83.03z"/>
</g>
<g>
	<path class="st1" d="M218.72,78.62c-1.96,3.22-4.33,6.6-6.52,9.67c-1.41,1.82-3.31,4.35-4.49,6.3c-2.44,3.43-6.36,5.17-10.62,5.54
		c0,0-0.56-0.57-0.56-0.57c0.21-3.09,1.27-5.55,2.87-7.93c1.42-2.23,3.95-3.27,5.97-4.81c0,0,3.08-2.31,3.08-2.31
		c3.09-2.17,6.47-4.52,9.7-6.46C218.15,78.05,218.72,78.62,218.72,78.62L218.72,78.62z"/>
</g>
<g>
	<path class="st1" d="M83.79,212.38c1.83-3.09,4.06-6.33,6.12-9.27c1.33-1.74,3.12-4.17,4.22-6.03c2.31-3.32,6.13-4.89,10.22-5.14
		c0,0,0.56,0.57,0.56,0.57c-0.13,2.99-1.09,5.36-2.6,7.67c-1.33,2.14-3.77,3.1-5.7,4.55c0,0-2.95,2.17-2.95,2.17
		c-2.96,2.04-6.2,4.25-9.3,6.07C84.35,212.95,83.79,212.38,83.79,212.38L83.79,212.38z"/>
</g>
</svg>
