<?xml version="1.0" encoding="utf-8"?>
<!-- Generator: Adobe Illustrator 26.1.0, SVG Export Plug-In . SVG Version: 6.00 Build 0)  -->
<svg version="1.1" id="Layer_1" xmlns="http://www.w3.org/2000/svg" xmlns:xlink="http://www.w3.org/1999/xlink" x="0px" y="0px"
	 viewBox="0 0 300 300" style="enable-background:new 0 0 300 300;" xml:space="preserve">
<style type="text/css">
	.st0{fill:#FFFFFF;stroke:#000000;stroke-width:3;stroke-miterlimit:10;}
	.st1{fill:#ED1C24;}
</style>
<path class="st0" d="M169.5,168.5c0,12.98-11.23,23.33-24.51,21.86c-10.19-1.13-18.36-9.39-19.38-19.58
	c-1.03-10.29,5.04-19.32,13.89-22.78c0,0,0,0,0,0V80.81c0-4.59,3.72-8.31,8.31-8.31h0c4.25,0,7.69,3.44,7.69,7.69V148c0,0,0,0,0,0
	C163.69,151.2,169.5,159.17,169.5,168.5z"/>
<path class="st1" d="M158.5,168.5c0,6.78-6.11,12.11-13.13,10.8c-4.37-0.82-7.88-4.33-8.68-8.71c-1.09-5.93,2.56-11.19,7.81-12.67
	c0,0,0,0,0,0c0,0,0-45.24,0-57.43c0-1.66,1.34-2.99,3-2.99l0,0c1.66,0,3,1.34,3,3v57.42c0,0,0,0,0,0
	C155.12,159.22,158.5,163.46,158.5,168.5z"/>
<g>
	<line class="st1" x1="161" y1="98" x2="180" y2="98"/>
	<g>
		<path class="st1" d="M161,99.88c6.33,0,12.67,0,19,0c2.41,0,2.42-3.75,0-3.75c-6.33,0-12.67,0-19,0
			C158.59,96.12,158.58,99.88,161,99.88L161,99.88z"/>
	</g>
</g>
<g>
	<line class="st1" x1="161" y1="105" x2="180" y2="105"/>
	<g>
		<path class="st1" d="M161,106.88c6.33,0,12.67,0,19,0c2.41,0,2.42-3.75,0-3.75c-6.33,0-12.67,0-19,0
			C158.59,103.12,158.58,106.88,161,106.88L161,106.88z"/>
	</g>
</g>
<g>
	<line class="st1" x1="161" y1="112" x2="180" y2="112"/>
	<g>
		<path class="st1" d="M161,113.88c6.33,0,12.67,0,19,0c2.41,0,2.42-3.75,0-3.75c-6.33,0-12.67,0-19,0
			C158.59,110.12,158.58,113.88,161,113.88L161,113.88z"/>
	</g>
</g>
<g>
	<line class="st1" x1="161" y1="119" x2="180" y2="119"/>
	<g>
		<path class="st1" d="M161,120.88c6.33,0,12.67,0,19,0c2.41,0,2.42-3.75,0-3.75c-6.33,0-12.67,0-19,0
			C158.59,117.12,158.58,120.88,161,120.88L161,120.88z"/>
	</g>
</g>
<g>
	<line class="st1" x1="161" y1="126" x2="180" y2="126"/>
	<g>
		<path class="st1" d="M161,127.88c6.33,0,12.67,0,19,0c2.41,0,2.42-3.75,0-3.75c-6.33,0-12.67,0-19,0
			C158.59,124.12,158.58,127.88,161,127.88L161,127.88z"/>
	</g>
</g>
<g>
	<line class="st1" x1="161" y1="133" x2="180" y2="133"/>
	<g>
		<path class="st1" d="M161,134.88c6.33,0,12.67,0,19,0c2.41,0,2.42-3.75,0-3.75c-6.33,0-12.67,0-19,0
			C158.59,131.12,158.58,134.88,161,134.88L161,134.88z"/>
	</g>
</g>
</svg>
